<svg xmlns="http://www.w3.org/2000/svg" width="21" height="22" fill="none"><g filter="url(#a)"><path fill="url(#b)" fill-rule="evenodd" d="M6.85 4h3.54c1.24 3.82 2.75 7.35 4 11.17.66-.17 1.26-.4 1.84-.65.37.58.42 1.5.77 2.1-1.23.63-2.7 1-4.15 1.38-.72-2.32-1.63-4.44-2.39-6.72-1.37 1.96-2.51 4.16-3.84 6.15H4c-.02-.38.27-.79.46-1.13 1.51-2.64 3.25-5.61 4.77-8.33-.13-.67-.44-1.15-.61-1.79H6.85V4Z" clip-rule="evenodd"/></g><defs><linearGradient id="b" x1="10.5" x2="21.5" y1="4" y2="31" gradientUnits="userSpaceOnUse"><stop stop-color="#FECD59"/><stop offset=".73" stop-color="#FADD77"/></linearGradient><filter id="a" width="21" height="22" x="0" y="0" color-interpolation-filters="sRGB" filterUnits="userSpaceOnUse"><feFlood flood-opacity="0" result="BackgroundImageFix"/><feColorMatrix in="SourceAlpha" result="hardAlpha" values="0 0 0 0 0 0 0 0 0 0 0 0 0 0 0 0 0 0 127 0"/><feOffset/><feGaussianBlur stdDeviation="2"/><feColorMatrix values="0 0 0 0 0.941176 0 0 0 0 0.780392 0 0 0 0 0.466667 0 0 0 1 0"/><feBlend in2="BackgroundImageFix" result="effect1_dropShadow_2193_73"/><feBlend in="SourceGraphic" in2="effect1_dropShadow_2193_73" result="shape"/></filter></defs></svg>
