<svg xmlns="http://www.w3.org/2000/svg" width="58" height="17" fill="none"><path fill="url(#a)" d="M2 0a2 2 0 0 0-2 2v13c0 1.1.9 2 2 2h54a2 2 0 0 0 2-2V2a2 2 0 0 0-2-2H2Zm9.94 3.69L9.1 13.53c-.05.18-.12.25-.3.24H7.4c-.13 0-.21-.03-.25-.17a5955 5955 0 0 0-2.81-10l-.04-.14c.1-.02.16-.04.24-.04h1.48c.17 0 .25.06.3.24.56 2.4 1.15 4.8 1.73 7.19l.06.25.34-1.4 1.42-6.01c.04-.19.11-.28.3-.27h1.58l.24.02-.05.25Zm10.8 10.1-1.46.01c-.22 0-.3-.08-.36-.3l-.5-2.07c-.05-.16-.11-.23-.29-.23H17.7c-.18 0-.24.07-.28.23-.16.69-.33 1.36-.48 2.05-.05.2-.13.29-.32.28h-1.55l-.26-.02.55-2.03 2.16-8c.06-.22.15-.3.36-.3.72.02 1.42.02 2.13 0 .17 0 .26.06.31.24l2.66 9.87.05.25-.28.03Zm11.02-1.5v1.26c0 .16-.04.22-.2.22H27.9c-.21 0-.2-.12-.2-.27V3.77c0-.34 0-.34.31-.34h1.38c.26-.02.29.11.29.33v7.51c0 .73 0 .73.69.73h3.11c.23-.01.29.07.28.3Zm9.9-8.56-2.8 9.78c-.06.22-.15.3-.37.29-.39-.02-.79-.02-1.18 0-.23.01-.33-.07-.39-.3l-2.38-8.32-.5-1.76h1.79c.18-.02.25.06.3.24l1.44 5.92.36 1.43.35-1.45 1.4-5.9c.03-.13.06-.24.23-.24h1.7l.13.04-.08.27Zm8.21 0c-.02.28-.01.57 0 .86 0 .18-.06.24-.22.23h-2.38v1.43h2.34v1.38h-2.17c-.07 0-.18.1-.18.14-.02.44-.01.88-.01 1.35h2.6v1.37l-.27.03h-3.56c-.24 0-.3-.07-.3-.33V3.75c0-.25.05-.34.3-.34h3.56c.23 0 .3.08.3.31Z"/><path fill="url(#b)" d="M20.04 9.5h-2.07l.98-4.2 1.09 4.2Z"/><defs><linearGradient id="a" x1="37" x2="41.5" y1="-16" y2="38.5" gradientUnits="userSpaceOnUse"><stop/><stop offset=".34" stop-color="#465558"/></linearGradient><linearGradient id="b" x1="19" x2="19" y1="4.07" y2="9.49" gradientUnits="userSpaceOnUse"><stop stop-color="#435255"/><stop offset=".81" stop-color="#465558"/></linearGradient></defs></svg>
